{
	"asset":{
		"generator":"Khronos glTF Blender I/O v4.2.57",
		"version":"2.0"
	},
	"scene":0,
	"scenes":[
		{
			"name":"Scene",
			"nodes":[
				0,
				1,
				2,
				3
			]
		}
	],
	"nodes":[
		{
			"mesh":0,
			"name":"Geometry",
			"rotation":[
				0.7071068286895752,
				0,
				0,
				0.7071068286895752
			]
		},
		{
			"mesh":1,
			"name":"Geometry.001",
			"rotation":[
				0.7071068286895752,
				0,
				0,
				0.7071068286895752
			]
		},
		{
			"mesh":2,
			"name":"Geometry.002",
			"rotation":[
				0.7071068286895752,
				0,
				0,
				0.7071068286895752
			]
		},
		{
			"mesh":3,
			"name":"Geometry.003",
			"rotation":[
				0.7071068286895752,
				0,
				0,
				0.7071068286895752
			]
		}
	],
	"materials":[
		{
			"doubleSided":true,
			"name":"Material_141",
			"pbrMetallicRoughness":{
				"baseColorFactor":[
					0.800000011920929,
					0.7215686440467834,
					0.7647058963775635,
					1
				],
				"roughnessFactor":0.10000000149011612
			}
		},
		{
			"doubleSided":true,
			"name":"Material_142",
			"pbrMetallicRoughness":{
				"baseColorFactor":[
					0.18431372940540314,
					0.23137255012989044,
					0.529411792755127,
					1
				],
				"metallicFactor":0.10000000149011612,
				"roughnessFactor":0.3499999940395355
			}
		},
		{
			"doubleSided":true,
			"name":"Material_143",
			"pbrMetallicRoughness":{
				"baseColorFactor":[
					0.1882352977991104,
					0.22745098173618317,
					0.5372549295425415,
					1
				],
				"metallicFactor":0.10000000149011612,
				"roughnessFactor":0.3499999940395355
			}
		},
		{
			"alphaMode":"BLEND",
			"doubleSided":true,
			"name":"Material_144",
			"pbrMetallicRoughness":{
				"baseColorFactor":[
					1,
					1,
					1,
					0.20000000298023224
				],
				"roughnessFactor":0
			}
		}
	],
	"meshes":[
		{
			"name":"Geometry",
			"primitives":[
				{
					"attributes":{
						"POSITION":0,
						"NORMAL":1,
						"TEXCOORD_0":2
					},
					"indices":3,
					"material":0
				}
			]
		},
		{
			"name":"Geometry.001",
			"primitives":[
				{
					"attributes":{
						"POSITION":4,
						"NORMAL":5,
						"TEXCOORD_0":6
					},
					"indices":7,
					"material":1
				}
			]
		},
		{
			"name":"Geometry.002",
			"primitives":[
				{
					"attributes":{
						"POSITION":8,
						"NORMAL":9,
						"TEXCOORD_0":10
					},
					"indices":11,
					"material":2
				}
			]
		},
		{
			"name":"Geometry.003",
			"primitives":[
				{
					"attributes":{
						"POSITION":12,
						"NORMAL":13,
						"TEXCOORD_0":14
					},
					"indices":15,
					"material":3
				}
			]
		}
	],
	"accessors":[
		{
			"bufferView":0,
			"componentType":5126,
			"count":8339,
			"max":[
				0.060110270977020264,
				0.02842470072209835,
				-0.030053239315748215
			],
			"min":[
				-0.06010013073682785,
				0.02672961913049221,
				-0.03475935012102127
			],
			"type":"VEC3"
		},
		{
			"bufferView":1,
			"componentType":5126,
			"count":8339,
			"type":"VEC3"
		},
		{
			"bufferView":2,
			"componentType":5126,
			"count":8339,
			"type":"VEC2"
		},
		{
			"bufferView":3,
			"componentType":5123,
			"count":43392,
			"type":"SCALAR"
		},
		{
			"bufferView":4,
			"componentType":5126,
			"count":12832,
			"max":[
				0.06240445002913475,
				0.029249070212244987,
				-0.00023286420037038624
			],
			"min":[
				-0.06239427998661995,
				-0.08423413336277008,
				-0.035116709768772125
			],
			"type":"VEC3"
		},
		{
			"bufferView":5,
			"componentType":5126,
			"count":12832,
			"type":"VEC3"
		},
		{
			"bufferView":6,
			"componentType":5126,
			"count":12832,
			"type":"VEC2"
		},
		{
			"bufferView":7,
			"componentType":5123,
			"count":68736,
			"type":"SCALAR"
		},
		{
			"bufferView":8,
			"componentType":5126,
			"count":33101,
			"max":[
				0.06240224838256836,
				0.04461418837308884,
				-0.0001511313021183014
			],
			"min":[
				-0.06239213049411774,
				0.02574232965707779,
				-0.040656451135873795
			],
			"type":"VEC3"
		},
		{
			"bufferView":9,
			"componentType":5126,
			"count":33101,
			"type":"VEC3"
		},
		{
			"bufferView":10,
			"componentType":5126,
			"count":33101,
			"type":"VEC2"
		},
		{
			"bufferView":11,
			"componentType":5123,
			"count":180960,
			"type":"SCALAR"
		},
		{
			"bufferView":12,
			"componentType":5126,
			"count":2924,
			"max":[
				0.05358494818210602,
				0.04469070956110954,
				-0.0011134230298921466
			],
			"min":[
				-0.0535748191177845,
				0.034620899707078934,
				-0.03889070823788643
			],
			"type":"VEC3"
		},
		{
			"bufferView":13,
			"componentType":5126,
			"count":2924,
			"type":"VEC3"
		},
		{
			"bufferView":14,
			"componentType":5126,
			"count":2924,
			"type":"VEC2"
		},
		{
			"bufferView":15,
			"componentType":5123,
			"count":15360,
			"type":"SCALAR"
		}
	],
	"bufferViews":[
		{
			"buffer":0,
			"byteLength":100068,
			"byteOffset":0,
			"target":34962
		},
		{
			"buffer":0,
			"byteLength":100068,
			"byteOffset":100068,
			"target":34962
		},
		{
			"buffer":0,
			"byteLength":66712,
			"byteOffset":200136,
			"target":34962
		},
		{
			"buffer":0,
			"byteLength":86784,
			"byteOffset":266848,
			"target":34963
		},
		{
			"buffer":0,
			"byteLength":153984,
			"byteOffset":353632,
			"target":34962
		},
		{
			"buffer":0,
			"byteLength":153984,
			"byteOffset":507616,
			"target":34962
		},
		{
			"buffer":0,
			"byteLength":102656,
			"byteOffset":661600,
			"target":34962
		},
		{
			"buffer":0,
			"byteLength":137472,
			"byteOffset":764256,
			"target":34963
		},
		{
			"buffer":0,
			"byteLength":397212,
			"byteOffset":901728,
			"target":34962
		},
		{
			"buffer":0,
			"byteLength":397212,
			"byteOffset":1298940,
			"target":34962
		},
		{
			"buffer":0,
			"byteLength":264808,
			"byteOffset":1696152,
			"target":34962
		},
		{
			"buffer":0,
			"byteLength":361920,
			"byteOffset":1960960,
			"target":34963
		},
		{
			"buffer":0,
			"byteLength":35088,
			"byteOffset":2322880,
			"target":34962
		},
		{
			"buffer":0,
			"byteLength":35088,
			"byteOffset":2357968,
			"target":34962
		},
		{
			"buffer":0,
			"byteLength":23392,
			"byteOffset":2393056,
			"target":34962
		},
		{
			"buffer":0,
			"byteLength":30720,
			"byteOffset":2416448,
			"target":34963
		}
	],
	"buffers":[
		{
			"byteLength":2447168,
			"uri":"3d.bin"
		}
	]
}
